# xmcd
#
# Track frame offsets:
#	150
#	14270
#	25812
#	40812
#	52637
#	63705
#	77392
#	87155
#	100787
#	112412
#
# Disc length: 1693 seconds
#
# Revision: 2
# Processed by: cddbd v1.5.1PL2 Copyright (c) Steve Scherf et al.
# Submitted via: dBpowerAMP V4.0
#
DISCID=71069b0a
DTITLE=George Jones - All American Country
DYEAR=2005
DGENRE=Country
TTITLE0=The Grand Tour
TTITLE1=A Picture Of Me (Without You)
TTITLE2=You Always Look Your Best (Here In My Arms)
TTITLE3=What My Woman Can't Do
TTITLE4=She's My Rock
TTITLE5=I'll Take You To My World
TTITLE6=Kiss An Angel Good Morning
TTITLE7=These Days (I Barely Get By)
TTITLE8=Baby, There's Nothing Like You
TTITLE9=He Stopped Loving Her Today
EXTD=
EXTT0=
EXTT1=
EXTT2=
EXTT3=
EXTT4=
EXTT5=
EXTT6=
EXTT7=
EXTT8=
EXTT9=
PLAYORDER=
